AtkinsonHyperlegibleMono-ExtraLight.sfdir
StartChar: exclam
Encoding: 33 33 254
Width: 632
GlyphClass: 1
Flags: W
LayerCount: 2
Fore
SplineSet
288 497 m 1,0,-1
 288 668 l 1,1,-1
 344 668 l 1,2,-1
 344 497 l 1,3,-1
 332 171 l 1,4,-1
 300 171 l 1,5,-1
 288 497 l 1,0,-1
282 2 m 128,-1,7
 268 16 268 16 268 36 c 256,8,9
 268 56 268 56 282 70 c 128,-1,10
 296 84 296 84 316 84 c 256,11,12
 336 84 336 84 350 70 c 128,-1,13
 364 56 364 56 364 36 c 256,14,15
 364 16 364 16 350 2 c 128,-1,16
 336 -12 336 -12 316 -12 c 256,17,6
 296 -12 296 -12 282 2 c 128,-1,7
EndSplineSet
EndChar
StartChar: quotedbl
Encoding: 34 34 284
Width: 632
GlyphClass: 1
Flags: W
LayerCount: 2
Fore
SplineSet
203 668 m 1,0,-1
 262 668 l 1,1,-1
 245 432 l 1,2,-1
 220 432 l 1,3,-1
 203 668 l 1,0,-1
370 668 m 1,4,-1
 429 668 l 1,5,-1
 412 432 l 1,6,-1
 387 432 l 1,7,-1
 370 668 l 1,4,-1
EndSplineSet
EndChar
StartChar: numbersign
Encoding: 35 35 261
Width: 632
GlyphClass: 1
Flags: W
LayerCount: 2
Fore
SplineSet
159 197 m 1,0,-1
 38 197 l 1,1,-1
 45 242 l 1,2,-1
 164 242 l 1,3,-1
 189 426 l 1,4,-1
 69 426 l 1,5,-1
 76 471 l 1,6,-1
 195 471 l 1,7,-1
 222 668 l 1,8,-1
 271 668 l 1,9,-1
 244 471 l 1,10,-1
 425 471 l 1,11,-1
 452 668 l 1,12,-1
 501 668 l 1,13,-1
 474 471 l 1,14,-1
 594 471 l 1,15,-1
 587 426 l 1,16,-1
 469 426 l 1,17,-1
 444 242 l 1,18,-1
 563 242 l 1,19,-1
 556 197 l 1,20,-1
 438 197 l 1,21,-1
 411 0 l 1,22,-1
 362 0 l 1,23,-1
 389 197 l 1,24,-1
 208 197 l 1,25,-1
 181 0 l 1,26,-1
 132 0 l 1,27,-1
 159 197 l 1,0,-1
395 242 m 1,28,-1
 420 426 l 1,29,-1
 238 426 l 1,30,-1
 213 242 l 1,31,-1
 395 242 l 1,28,-1
EndSplineSet
EndChar
StartChar: dollar
Encoding: 36 36 304
Width: 632
GlyphClass: 1
Flags: W
LayerCount: 2
Fore
SplineSet
154.5 32.5 m 128,-1,1
 93 71 93 71 72 140 c 1,2,-1
 126 161 l 1,3,4
 142 106 142 106 186 74.5 c 128,-1,5
 230 43 230 43 289 37 c 1,6,-1
 289 329 l 1,7,-1
 256 337 l 2,8,9
 176 356 176 356 132 394.5 c 128,-1,10
 88 433 88 433 88 502 c 0,11,12
 88 549 88 549 114 588 c 128,-1,13
 140 627 140 627 185.5 651 c 128,-1,14
 231 675 231 675 289 679 c 1,15,-1
 289 758 l 1,16,-1
 328 758 l 1,17,-1
 328 680 l 1,18,19
 396 678 396 678 451 649 c 128,-1,20
 506 620 506 620 534 565 c 1,21,-1
 479 544 l 1,22,23
 459 583 459 583 416.5 606 c 128,-1,24
 374 629 374 629 328 632 c 1,25,-1
 328 374 l 1,26,-1
 364 365 l 2,27,28
 464 341 464 341 512.5 300 c 128,-1,29
 561 259 561 259 561 182 c 0,30,31
 561 126 561 126 529.5 83 c 128,-1,32
 498 40 498 40 445 15.5 c 128,-1,33
 392 -9 392 -9 328 -12 c 1,34,-1
 328 -90 l 1,35,-1
 289 -90 l 1,36,-1
 289 -11 l 1,37,0
 216 -6 216 -6 154.5 32.5 c 128,-1,1
454.5 78 m 128,-1,39
 504 117 504 117 504 184 c 0,40,41
 504 233 504 233 469.5 262.5 c 128,-1,42
 435 292 435 292 351 313 c 2,43,-1
 328 319 l 1,44,-1
 328 36 l 1,45,38
 405 39 405 39 454.5 78 c 128,-1,39
185.5 591.5 m 128,-1,47
 145 558 145 558 145 502 c 0,48,49
 145 460 145 460 177.5 431 c 128,-1,50
 210 402 210 402 267 389 c 2,51,-1
 289 384 l 1,52,-1
 289 631 l 1,53,46
 226 625 226 625 185.5 591.5 c 128,-1,47
EndSplineSet
EndChar
StartChar: parenleft
Encoding: 40 40 268
Width: 632
GlyphClass: 1
Flags: W
LayerCount: 2
Fore
SplineSet
249.5 42.5 m 128,-1,1
 194 156 194 156 194 273 c 256,2,3
 194 390 194 390 249.5 503.5 c 128,-1,4
 305 617 305 617 408 708 c 1,5,-1
 482 708 l 1,6,7
 371 612 371 612 311 499.5 c 128,-1,8
 251 387 251 387 251 273 c 256,9,10
 251 159 251 159 311 46.5 c 128,-1,11
 371 -66 371 -66 482 -162 c 1,12,-1
 408 -162 l 1,13,0
 305 -71 305 -71 249.5 42.5 c 128,-1,1
EndSplineSet
EndChar
StartChar: parenright
Encoding: 41 41 269
Width: 632
GlyphClass: 1
Flags: W
LayerCount: 2
Fore
SplineSet
321 46.5 m 128,-1,1
 381 159 381 159 381 273 c 256,2,3
 381 387 381 387 321 499.5 c 128,-1,4
 261 612 261 612 150 708 c 1,5,-1
 224 708 l 1,6,7
 327 617 327 617 382.5 503.5 c 128,-1,8
 438 390 438 390 438 273 c 256,9,10
 438 156 438 156 382.5 42.5 c 128,-1,11
 327 -71 327 -71 224 -162 c 1,12,-1
 150 -162 l 1,13,0
 261 -66 261 -66 321 46.5 c 128,-1,1
EndSplineSet
EndChar
StartChar: plus
Encoding: 43 43 311
Width: 632
GlyphClass: 1
Flags: W
LayerCount: 2
Fore
SplineSet
290 222 m 1,0,-1
 68 222 l 1,1,-1
 68 274 l 1,2,-1
 290 274 l 1,3,-1
 290 496 l 1,4,-1
 342 496 l 1,5,-1
 342 274 l 1,6,-1
 564 274 l 1,7,-1
 564 222 l 1,8,-1
 342 222 l 1,9,-1
 342 0 l 1,10,-1
 290 0 l 1,11,-1
 290 222 l 1,0,-1
EndSplineSet
EndChar
StartChar: comma
Encoding: 44 44 250
Width: 632
GlyphClass: 1
Flags: W
LayerCount: 2
Fore
SplineSet
278 4.5 m 128,-1,1
 264 20 264 20 264 41 c 0,2,3
 264 64 264 64 279.5 79 c 128,-1,4
 295 94 295 94 317 94 c 0,5,6
 340 94 340 94 355 79 c 128,-1,7
 370 64 370 64 370 41 c 0,8,9
 370 30 370 30 363 12 c 2,10,-1
 306 -138 l 1,11,-1
 263 -138 l 1,12,-1
 313 -12 l 1,13,0
 292 -11 292 -11 278 4.5 c 128,-1,1
EndSplineSet
EndChar
StartChar: zero
Encoding: 48 48 229
Width: 632
GlyphClass: 1
Flags: W
LayerCount: 2
Fore
SplineSet
130.5 76.5 m 128,-1,1
 63 166 63 166 63 335 c 256,2,3
 63 504 63 504 130.5 593.5 c 128,-1,4
 198 683 198 683 316 683 c 256,5,6
 434 683 434 683 501.5 593.5 c 128,-1,7
 569 504 569 504 569 335 c 256,8,9
 569 166 569 166 501.5 76.5 c 128,-1,10
 434 -13 434 -13 316 -13 c 256,11,0
 198 -13 198 -13 130.5 76.5 c 128,-1,1
452 99 m 1,13,-1
 156 532 l 1,14,15
 119 460 119 460 119 335 c 0,16,17
 119 180 119 180 172.5 108 c 128,-1,18
 226 36 226 36 316 36 c 0,19,12
 402 36 402 36 452 99 c 1,13,-1
513 335 m 0,21,22
 513 489 513 489 459.5 561.5 c 128,-1,23
 406 634 406 634 316 634 c 0,24,25
 231 634 231 634 181 572 c 1,26,-1
 477 140 l 1,27,20
 513 214 513 214 513 335 c 0,21,22
EndSplineSet
Substitution2: "'zero' Slashed Zero in Latin lookup 10 subtable" zero.zero
AlternateSubs2: "'aalt' Access All Alternates in Latin lookup 0 subtable" zero.zero
EndChar
StartChar: two
Encoding: 50 50 231
Width: 632
GlyphClass: 5
Flags: W
LayerCount: 2
Fore
SplineSet
315 231.5 m 128,-1,1
 394 306 394 306 431.5 369.5 c 128,-1,2
 469 433 469 433 469 497 c 0,3,4
 469 555 469 555 430 593 c 128,-1,5
 391 631 391 631 326 631 c 0,6,7
 267 631 267 631 225 599 c 128,-1,8
 183 567 183 567 170 503 c 1,9,-1
 112 520 l 1,10,11
 130 594 130 594 186 637 c 128,-1,12
 242 680 242 680 327 680 c 0,13,14
 416 680 416 680 471.5 632 c 128,-1,15
 527 584 527 584 527 498 c 0,16,17
 527 383 527 383 431.5 274 c 128,-1,18
 336 165 336 165 178 53 c 1,19,-1
 552 53 l 1,20,-1
 552 0 l 1,21,-1
 97 0 l 1,22,-1
 97 51 l 1,23,0
 236 157 236 157 315 231.5 c 128,-1,1
EndSplineSet
Substitution2: "'sups' Superscript in Latin lookup 6 subtable" uni00B2
AlternateSubs2: "'aalt' Access All Alternates in Latin lookup 0 subtable" uni00B2
EndChar
StartChar: four
Encoding: 52 52 233
Width: 632
GlyphClass: 5
Flags: W
LayerCount: 2
Fore
SplineSet
397 177 m 1,0,-1
 62 177 l 1,1,-1
 62 240 l 1,2,-1
 388 668 l 1,3,-1
 453 668 l 1,4,-1
 453 229 l 1,5,-1
 571 229 l 1,6,-1
 571 177 l 1,7,-1
 453 177 l 1,8,-1
 453 0 l 1,9,-1
 397 0 l 1,10,-1
 397 177 l 1,0,-1
397 229 m 1,11,-1
 397 595 l 1,12,-1
 393 595 l 1,13,-1
 117 229 l 1,14,-1
 397 229 l 1,11,-1
EndSplineSet
EndChar
StartChar: five
Encoding: 53 53 234
Width: 632
GlyphClass: 1
Flags: W
LayerCount: 2
Fore
SplineSet
169 35.5 m 128,-1,1
 118 83 118 83 103 157 c 1,2,-1
 158 169 l 1,3,4
 170 107 170 107 209 72 c 128,-1,5
 248 37 248 37 323 37 c 0,6,7
 366 37 366 37 404 59 c 128,-1,8
 442 81 442 81 465 122.5 c 128,-1,9
 488 164 488 164 488 219 c 0,10,11
 488 278 488 278 464 318.5 c 128,-1,12
 440 359 440 359 403 379 c 128,-1,13
 366 399 366 399 325 399 c 0,14,15
 278 399 278 399 239.5 377.5 c 128,-1,16
 201 356 201 356 178 318 c 1,17,-1
 126 332 l 1,18,-1
 167 668 l 1,19,-1
 516 668 l 1,20,-1
 516 615 l 1,21,-1
 212 615 l 1,22,-1
 184 382 l 1,23,24
 238 448 238 448 331 448 c 0,25,26
 390 448 390 448 438.5 420 c 128,-1,27
 487 392 487 392 515.5 340 c 128,-1,28
 544 288 544 288 544 219 c 0,29,30
 544 146 544 146 513 94 c 128,-1,31
 482 42 482 42 430.5 15 c 128,-1,32
 379 -12 379 -12 320 -12 c 0,33,0
 220 -12 220 -12 169 35.5 c 128,-1,1
EndSplineSet
EndChar
StartChar: seven
Encoding: 55 55 236
Width: 632
GlyphClass: 1
Flags: W
LayerCount: 2
Fore
SplineSet
481 615 m 1,0,-1
 101 615 l 1,1,-1
 101 668 l 1,2,-1
 539 668 l 1,3,-1
 539 615 l 1,4,-1
 250 0 l 1,5,-1
 188 0 l 1,6,-1
 481 615 l 1,0,-1
EndSplineSet
EndChar
StartChar: eight
Encoding: 56 56 237
Width: 632
GlyphClass: 1
Flags: W
LayerCount: 2
Fore
SplineSet
194 15 m 128,-1,1
 140 41 140 41 110.5 86 c 128,-1,2
 81 131 81 131 81 185 c 0,3,4
 81 246 81 246 117 294 c 128,-1,5
 153 342 153 342 216 365 c 1,6,7
 180 389 180 389 160 426 c 128,-1,8
 140 463 140 463 140 508 c 0,9,10
 140 556 140 556 163.5 596 c 128,-1,11
 187 636 187 636 227.5 659.5 c 128,-1,12
 268 683 268 683 316 683 c 256,13,14
 364 683 364 683 404.5 659.5 c 128,-1,15
 445 636 445 636 468.5 596 c 128,-1,16
 492 556 492 556 492 508 c 0,17,18
 492 463 492 463 472 426 c 128,-1,19
 452 389 452 389 416 365 c 1,20,21
 479 342 479 342 515 294 c 128,-1,22
 551 246 551 246 551 185 c 0,23,24
 551 131 551 131 521.5 86 c 128,-1,25
 492 41 492 41 438 15 c 128,-1,26
 384 -11 384 -11 316 -11 c 256,27,0
 248 -11 248 -11 194 15 c 128,-1,1
409.5 58.5 m 128,-1,29
 450 78 450 78 472 111 c 128,-1,30
 494 144 494 144 494 185 c 256,31,32
 494 226 494 226 472 259.5 c 128,-1,33
 450 293 450 293 409.5 312.5 c 128,-1,34
 369 332 369 332 316 332 c 256,35,36
 263 332 263 332 222.5 312.5 c 128,-1,37
 182 293 182 293 160 259.5 c 128,-1,38
 138 226 138 226 138 185 c 256,39,40
 138 144 138 144 160 111 c 128,-1,41
 182 78 182 78 222.5 58.5 c 128,-1,42
 263 39 263 39 316 39 c 256,43,28
 369 39 369 39 409.5 58.5 c 128,-1,29
404.5 418.5 m 128,-1,45
 441 455 441 455 441 507 c 256,46,47
 441 559 441 559 404.5 595 c 128,-1,48
 368 631 368 631 316 631 c 256,49,50
 264 631 264 631 227.5 595 c 128,-1,51
 191 559 191 559 191 507 c 256,52,53
 191 455 191 455 227.5 418.5 c 128,-1,54
 264 382 264 382 316 382 c 256,55,44
 368 382 368 382 404.5 418.5 c 128,-1,45
EndSplineSet
EndChar
StartChar: less
Encoding: 60 60 318
Width: 632
GlyphClass: 1
Flags: W
LayerCount: 2
Fore
SplineSet
85 223 m 1,0,-1
 85 273 l 1,1,-1
 547 486 l 1,2,-1
 547 425 l 1,3,-1
 158 247 l 1,4,-1
 547 70 l 1,5,-1
 547 9 l 1,6,-1
 85 223 l 1,0,-1
EndSplineSet
EndChar
StartChar: equal
Encoding: 61 61 315
Width: 632
GlyphClass: 1
Flags: W
LayerCount: 2
Fore
SplineSet
68 366 m 1,0,-1
 564 366 l 1,1,-1
 564 314 l 1,2,-1
 68 314 l 1,3,-1
 68 366 l 1,0,-1
68 186 m 1,4,-1
 564 186 l 1,5,-1
 564 134 l 1,6,-1
 68 134 l 1,7,-1
 68 186 l 1,4,-1
EndSplineSet
EndChar
StartChar: question
Encoding: 63 63 256
Width: 632
GlyphClass: 1
Flags: W
LayerCount: 2
Fore
SplineSet
279 267.5 m 128,-1,1
 287 293 287 293 307 316 c 128,-1,2
 327 339 327 339 367 368 c 0,3,4
 414 404 414 404 438 439.5 c 128,-1,5
 462 475 462 475 462 517 c 0,6,7
 462 569 462 569 424 600 c 128,-1,8
 386 631 386 631 328 631 c 0,9,10
 262 631 262 631 227 593 c 128,-1,11
 192 555 192 555 187 508 c 1,12,-1
 132 518 l 1,13,14
 141 590 141 590 196 635 c 128,-1,15
 251 680 251 680 330 680 c 0,16,17
 378 680 378 680 421 661.5 c 128,-1,18
 464 643 464 643 491 606 c 128,-1,19
 518 569 518 569 518 517 c 0,20,21
 518 460 518 460 489 419 c 128,-1,22
 460 378 460 378 391 320 c 0,23,24
 361 295 361 295 348 280 c 128,-1,25
 335 265 335 265 331 250 c 128,-1,26
 327 235 327 235 327 207 c 2,27,-1
 327 163 l 1,28,-1
 271 163 l 1,29,-1
 271 203 l 2,30,0
 271 242 271 242 279 267.5 c 128,-1,1
265 2 m 128,-1,32
 251 16 251 16 251 36 c 256,33,34
 251 56 251 56 265 70 c 128,-1,35
 279 84 279 84 299 84 c 256,36,37
 319 84 319 84 333 70 c 128,-1,38
 347 56 347 56 347 36 c 256,39,40
 347 16 347 16 333 2 c 128,-1,41
 319 -12 319 -12 299 -12 c 256,42,31
 279 -12 279 -12 265 2 c 128,-1,32
EndSplineSet
EndChar
StartChar: at
Encoding: 64 64 288
Width: 632
GlyphClass: 1
Flags: W
LayerCount: 2
Fore
SplineSet
173 -53 m 128,-1,1
 102 -13 102 -13 58.5 66 c 128,-1,2
 15 145 15 145 15 257 c 0,3,4
 15 359 15 359 54.5 437 c 128,-1,5
 94 515 94 515 164 558 c 128,-1,6
 234 601 234 601 322 601 c 0,7,8
 393 601 393 601 460.5 569 c 128,-1,9
 528 537 528 537 572.5 466.5 c 128,-1,10
 617 396 617 396 617 287 c 0,11,12
 617 216 617 216 598.5 169 c 128,-1,13
 580 122 580 122 551 100 c 128,-1,14
 522 78 522 78 487 78 c 0,15,16
 457 78 457 78 434 95.5 c 128,-1,17
 411 113 411 113 401 138 c 1,18,19
 364 75 364 75 290 75 c 0,20,21
 257 75 257 75 228.5 93.5 c 128,-1,22
 200 112 200 112 182 149 c 128,-1,23
 164 186 164 186 164 237 c 0,24,25
 164 341 164 341 214 390.5 c 128,-1,26
 264 440 264 440 337 440 c 0,27,28
 386 440 386 440 441 420 c 1,29,-1
 441 189 l 2,30,31
 441 154 441 154 456 139 c 128,-1,32
 471 124 471 124 494 124 c 0,33,34
 532 124 532 124 551.5 174.5 c 128,-1,35
 571 225 571 225 571 287 c 0,36,37
 571 367 571 367 540.5 428 c 128,-1,38
 510 489 510 489 453.5 522 c 128,-1,39
 397 555 397 555 322 555 c 0,40,41
 246 555 246 555 187.5 519 c 128,-1,42
 129 483 129 483 96.5 415.5 c 128,-1,43
 64 348 64 348 64 256 c 0,44,45
 64 158 64 158 98.5 89.5 c 128,-1,46
 133 21 133 21 191.5 -13 c 128,-1,47
 250 -47 250 -47 322 -47 c 0,48,49
 389 -47 389 -47 444 -12 c 1,50,-1
 444 -65 l 1,51,52
 387 -93 387 -93 326 -93 c 0,53,0
 244 -93 244 -93 173 -53 c 128,-1,1
362 151.5 m 128,-1,55
 390 184 390 184 390 230 c 2,56,-1
 390 386 l 1,57,58
 369 393 369 393 337 393 c 0,59,60
 288 393 288 393 251.5 357.5 c 128,-1,61
 215 322 215 322 215 236 c 0,62,63
 215 181 215 181 239.5 150 c 128,-1,64
 264 119 264 119 297 119 c 0,65,54
 334 119 334 119 362 151.5 c 128,-1,55
EndSplineSet
EndChar
StartChar: D
Encoding: 68 68 19
Width: 632
GlyphClass: 2
Flags: W
AnchorPoint: "Anchor-1" 328 668 basechar 0
AnchorPoint: "Anchor-0" 318 0 basechar 0
LayerCount: 2
Fore
SplineSet
77 668 m 1,0,-1
 241 668 l 2,1,2
 406 668 406 668 498.5 589 c 128,-1,3
 591 510 591 510 591 336 c 0,4,5
 591 161 591 161 498 80.5 c 128,-1,6
 405 0 405 0 241 0 c 2,7,-1
 77 0 l 1,8,-1
 77 668 l 1,0,-1
450 110.5 m 128,-1,10
 532 171 532 171 532 336 c 0,11,12
 532 449 532 449 491 511.5 c 128,-1,13
 450 574 450 574 385 596 c 128,-1,14
 320 618 320 618 233 618 c 2,15,-1
 135 618 l 1,16,-1
 135 50 l 1,17,-1
 233 50 l 2,18,9
 368 50 368 50 450 110.5 c 128,-1,10
EndSplineSet
EndChar
StartChar: F
Encoding: 70 70 32
Width: 632
GlyphClass: 2
Flags: W
AnchorPoint: "Anchor-1" 309 668 basechar 0
AnchorPoint: "Anchor-0" 309 0 basechar 0
LayerCount: 2
Fore
SplineSet
136 668 m 1,0,-1
 538 668 l 1,1,-1
 538 618 l 1,2,-1
 194 618 l 1,3,-1
 194 368 l 1,4,-1
 534 368 l 1,5,-1
 534 318 l 1,6,-1
 194 318 l 1,7,-1
 194 0 l 1,8,-1
 136 0 l 1,9,-1
 136 668 l 1,0,-1
EndSplineSet
EndChar
StartChar: G
Encoding: 71 71 33
Width: 632
GlyphClass: 2
Flags: W
AnchorPoint: "Anchor-1" 323 668 basechar 0
AnchorPoint: "Anchor-0" 323 0 basechar 0
LayerCount: 2
Fore
SplineSet
173 33 m 128,-1,1
 109 78 109 78 75 156.5 c 128,-1,2
 41 235 41 235 41 334 c 0,3,4
 41 437 41 437 76 515.5 c 128,-1,5
 111 594 111 594 175 637 c 128,-1,6
 239 680 239 680 325 680 c 0,7,8
 404 680 404 680 465.5 640 c 128,-1,9
 527 600 527 600 558 525 c 1,10,-1
 507 506 l 1,11,12
 483 565 483 565 436 597.5 c 128,-1,13
 389 630 389 630 323 630 c 0,14,15
 260 630 260 630 209.5 596 c 128,-1,16
 159 562 159 562 129.5 495 c 128,-1,17
 100 428 100 428 100 334 c 0,18,19
 100 245 100 245 129 177.5 c 128,-1,20
 158 110 158 110 208.5 74 c 128,-1,21
 259 38 259 38 322 38 c 0,22,23
 367 38 367 38 412.5 57.5 c 128,-1,24
 458 77 458 77 490.5 125 c 128,-1,25
 523 173 523 173 523 253 c 2,26,-1
 523 279 l 1,27,-1
 325 279 l 1,28,-1
 325 328 l 1,29,-1
 578 328 l 1,30,-1
 578 0 l 1,31,-1
 537 0 l 1,32,-1
 524 97 l 1,33,34
 491 43 491 43 435 15.5 c 128,-1,35
 379 -12 379 -12 323 -12 c 0,36,0
 237 -12 237 -12 173 33 c 128,-1,1
EndSplineSet
EndChar
StartChar: I
Encoding: 73 73 39
Width: 632
GlyphClass: 2
Flags: W
AnchorPoint: "Anchor-2" 490 10 basechar 0
AnchorPoint: "Anchor-1" 316 668 basechar 0
AnchorPoint: "Anchor-0" 316 0 basechar 0
LayerCount: 2
Fore
SplineSet
142 43 m 1,0,-1
 287 43 l 1,1,-1
 287 625 l 1,2,-1
 142 625 l 1,3,-1
 142 668 l 1,4,-1
 490 668 l 1,5,-1
 490 625 l 1,6,-1
 345 625 l 1,7,-1
 345 43 l 1,8,-1
 490 43 l 1,9,-1
 490 0 l 1,10,-1
 142 0 l 1,11,-1
 142 43 l 1,0,-1
EndSplineSet
EndChar
StartChar: M
Encoding: 77 77 56
Width: 632
GlyphClass: 2
Flags: W
AnchorPoint: "Anchor-1" 316 668 basechar 0
AnchorPoint: "Anchor-0" 316 0 basechar 0
LayerCount: 2
Fore
SplineSet
51 668 m 1,0,-1
 150 668 l 1,1,-1
 316 77 l 1,2,-1
 320 77 l 1,3,-1
 483 668 l 1,4,-1
 581 668 l 1,5,-1
 581 0 l 1,6,-1
 524 0 l 1,7,-1
 524 606 l 1,8,-1
 520 606 l 1,9,-1
 349 0 l 1,10,-1
 285 0 l 1,11,-1
 112 606 l 1,12,-1
 108 606 l 1,13,-1
 108 0 l 1,14,-1
 51 0 l 1,15,-1
 51 668 l 1,0,-1
EndSplineSet
EndChar
StartChar: P
Encoding: 80 80 71
Width: 632
GlyphClass: 2
Flags: W
AnchorPoint: "Anchor-1" 317 668 basechar 0
AnchorPoint: "Anchor-0" 317 0 basechar 0
LayerCount: 2
Fore
SplineSet
118 668 m 1,0,-1
 332 668 l 2,1,2
 442 668 442 668 504 619.5 c 128,-1,3
 566 571 566 571 566 476 c 256,4,5
 566 381 566 381 503.5 332.5 c 128,-1,6
 441 284 441 284 332 284 c 2,7,-1
 176 284 l 1,8,-1
 176 0 l 1,9,-1
 118 0 l 1,10,-1
 118 668 l 1,0,-1
460 366 m 128,-1,12
 507 399 507 399 507 476 c 0,13,14
 507 552 507 552 460 585 c 128,-1,15
 413 618 413 618 326 618 c 2,16,-1
 176 618 l 1,17,-1
 176 333 l 1,18,-1
 326 333 l 2,19,11
 413 333 413 333 460 366 c 128,-1,12
EndSplineSet
EndChar
StartChar: Q
Encoding: 81 81 73
Width: 632
GlyphClass: 1
Flags: W
LayerCount: 2
Fore
SplineSet
169 32.5 m 128,-1,1
 107 77 107 77 74 155.5 c 128,-1,2
 41 234 41 234 41 334 c 256,3,4
 41 434 41 434 74 512.5 c 128,-1,5
 107 591 107 591 169 635.5 c 128,-1,6
 231 680 231 680 316 680 c 256,7,8
 401 680 401 680 463 635.5 c 128,-1,9
 525 591 525 591 558 512.5 c 128,-1,10
 591 434 591 434 591 334 c 0,11,12
 591 205 591 205 538 115 c 1,13,-1
 632 26 l 1,14,-1
 595 -12 l 1,15,-1
 507 71 l 1,16,17
 472 31 472 31 423.5 9.5 c 128,-1,18
 375 -12 375 -12 316 -12 c 0,19,0
 231 -12 231 -12 169 32.5 c 128,-1,1
399.5 56 m 128,-1,21
 438 74 438 74 466 109 c 1,22,-1
 295 271 l 1,23,-1
 331 309 l 1,24,-1
 496 155 l 1,25,26
 532 232 532 232 532 334 c 0,27,28
 532 428 532 428 504 494.5 c 128,-1,29
 476 561 476 561 427 595.5 c 128,-1,30
 378 630 378 630 316 630 c 256,31,32
 254 630 254 630 205 595.5 c 128,-1,33
 156 561 156 561 128 494.5 c 128,-1,34
 100 428 100 428 100 334 c 256,35,36
 100 240 100 240 128 173.5 c 128,-1,37
 156 107 156 107 205 72.5 c 128,-1,38
 254 38 254 38 316 38 c 0,39,20
 361 38 361 38 399.5 56 c 128,-1,21
EndSplineSet
EndChar
StartChar: S
Encoding: 83 83 77
Width: 632
GlyphClass: 2
Flags: W
AnchorPoint: "Anchor-1" 316 668 basechar 0
AnchorPoint: "Anchor-0" 316 0 basechar 0
LayerCount: 2
Fore
SplineSet
164 26.5 m 128,-1,1
 94 65 94 65 72 140 c 1,2,-1
 128 162 l 1,3,4
 146 101 146 101 198 69.5 c 128,-1,5
 250 38 250 38 315 38 c 0,6,7
 397 38 397 38 449.5 76 c 128,-1,8
 502 114 502 114 502 184 c 0,9,10
 502 231 502 231 469 260 c 128,-1,11
 436 289 436 289 350 311 c 2,12,-1
 256 335 l 2,13,14
 179 354 179 354 133.5 392.5 c 128,-1,15
 88 431 88 431 88 502 c 0,16,17
 88 553 88 553 117.5 593.5 c 128,-1,18
 147 634 147 634 199 657 c 128,-1,19
 251 680 251 680 315 680 c 0,20,21
 386 680 386 680 445.5 651 c 128,-1,22
 505 622 505 622 534 565 c 1,23,-1
 477 544 l 1,24,25
 456 584 456 584 410 607 c 128,-1,26
 364 630 364 630 316 630 c 0,27,28
 244 630 244 630 195.5 597 c 128,-1,29
 147 564 147 564 147 502 c 0,30,31
 147 458 147 458 180.5 430.5 c 128,-1,32
 214 403 214 403 268 390 c 2,33,-1
 364 365 l 2,34,35
 462 340 462 340 511.5 300 c 128,-1,36
 561 260 561 260 561 182 c 0,37,38
 561 124 561 124 527.5 80 c 128,-1,39
 494 36 494 36 437.5 12 c 128,-1,40
 381 -12 381 -12 314 -12 c 0,41,0
 234 -12 234 -12 164 26.5 c 128,-1,1
EndSplineSet
EndChar
StartChar: W
Encoding: 87 87 97
Width: 632
GlyphClass: 2
Flags: W
AnchorPoint: "Anchor-1" 318 668 basechar 0
AnchorPoint: "Anchor-0" 318 0 basechar 0
LayerCount: 2
Fore
SplineSet
13 668 m 1,0,-1
 70 668 l 1,1,-1
 172 77 l 1,2,-1
 176 77 l 1,3,-1
 286 668 l 1,4,-1
 350 668 l 1,5,-1
 458 77 l 1,6,-1
 462 77 l 1,7,-1
 564 668 l 1,8,-1
 620 668 l 1,9,-1
 495 0 l 1,10,-1
 423 0 l 1,11,-1
 319 564 l 1,12,-1
 315 564 l 1,13,-1
 210 0 l 1,14,-1
 138 0 l 1,15,-1
 13 668 l 1,0,-1
EndSplineSet
EndChar
StartChar: a
Encoding: 97 97 112
Width: 632
GlyphClass: 2
Flags: W
AnchorPoint: "Anchor-2" 516 10 basechar 0
AnchorPoint: "Anchor-1" 310 496 basechar 0
AnchorPoint: "Anchor-0" 310 0 basechar 0
LayerCount: 2
Fore
SplineSet
135.5 23 m 128,-1,1
 87 58 87 58 87 122 c 0,2,3
 87 210 87 210 172.5 252.5 c 128,-1,4
 258 295 258 295 443 308 c 1,5,-1
 443 318 l 2,6,7
 443 459 443 459 310 459 c 0,8,9
 255 459 255 459 220 435 c 128,-1,10
 185 411 185 411 176 372 c 1,11,-1
 118 385 l 1,12,13
 137 444 137 444 188 475 c 128,-1,14
 239 506 239 506 309 506 c 0,15,16
 406 506 406 506 452 457.5 c 128,-1,17
 498 409 498 409 498 314 c 2,18,-1
 498 194 l 2,19,20
 498 79 498 79 516 0 c 1,21,-1
 470 0 l 1,22,-1
 450 81 l 1,23,24
 432 41 432 41 386.5 14.5 c 128,-1,25
 341 -12 341 -12 265 -12 c 0,26,0
 184 -12 184 -12 135.5 23 c 128,-1,1
395.5 74.5 m 128,-1,28
 443 113 443 113 443 195 c 2,29,-1
 443 262 l 1,30,31
 288 251 288 251 216 219.5 c 128,-1,32
 144 188 144 188 144 125 c 0,33,34
 144 85 144 85 177.5 60.5 c 128,-1,35
 211 36 211 36 269 36 c 0,36,27
 348 36 348 36 395.5 74.5 c 128,-1,28
EndSplineSet
Substitution2: "Single Substitution lookup 14 subtable" ordfeminine
AlternateSubs2: "'aalt' Access All Alternates in Latin lookup 0 subtable" ordfeminine
EndChar
StartChar: c
Encoding: 99 99 124
Width: 632
GlyphClass: 2
Flags: W
AnchorPoint: "Anchor-1" 346 496 basechar 0
AnchorPoint: "Anchor-0" 344 0 basechar 0
LayerCount: 2
Fore
SplineSet
217 21 m 128,-1,1
 162 54 162 54 131 112.5 c 128,-1,2
 100 171 100 171 100 243 c 0,3,4
 100 316 100 316 129.5 376 c 128,-1,5
 159 436 159 436 215.5 471 c 128,-1,6
 272 506 272 506 349 506 c 0,7,8
 415 506 415 506 464.5 477 c 128,-1,9
 514 448 514 448 543 398 c 1,10,-1
 492 378 l 1,11,12
 472 416 472 416 434 436.5 c 128,-1,13
 396 457 396 457 346 457 c 0,14,15
 295 457 295 457 252 433.5 c 128,-1,16
 209 410 209 410 183 362 c 128,-1,17
 157 314 157 314 157 245 c 0,18,19
 157 177 157 177 182.5 130.5 c 128,-1,20
 208 84 208 84 250.5 60.5 c 128,-1,21
 293 37 293 37 343 37 c 0,22,23
 395 37 395 37 435.5 58 c 128,-1,24
 476 79 476 79 495 114 c 1,25,-1
 548 94 l 1,26,27
 522 50 522 50 469.5 19 c 128,-1,28
 417 -12 417 -12 343 -12 c 0,29,0
 272 -12 272 -12 217 21 c 128,-1,1
EndSplineSet
EndChar
StartChar: d
Encoding: 100 100 129
Width: 632
GlyphClass: 2
Flags: W
AnchorPoint: "Anchor-3" 567 498 basechar 0
AnchorPoint: "Anchor-1" 329 796 basechar 0
AnchorPoint: "Anchor-0" 329 0 basechar 0
LayerCount: 2
Fore
SplineSet
170 19 m 128,-1,1
 117 50 117 50 88 108 c 128,-1,2
 59 166 59 166 59 247 c 0,3,4
 59 327 59 327 88.5 385.5 c 128,-1,5
 118 444 118 444 170.5 475 c 128,-1,6
 223 506 223 506 292 506 c 0,7,8
 356 506 356 506 403 478.5 c 128,-1,9
 450 451 450 451 477 406 c 1,10,-1
 477 708 l 1,11,-1
 533 708 l 1,12,-1
 533 183 l 2,13,14
 533 89 533 89 550 0 c 1,15,-1
 498 0 l 1,16,-1
 475 84 l 1,17,18
 447 41 447 41 401 14.5 c 128,-1,19
 355 -12 355 -12 292 -12 c 0,20,0
 223 -12 223 -12 170 19 c 128,-1,1
428 94 m 128,-1,22
 477 151 477 151 477 247 c 256,23,24
 477 343 477 343 428 400 c 128,-1,25
 379 457 379 457 298 457 c 0,26,27
 214 457 214 457 165 401.5 c 128,-1,28
 116 346 116 346 116 247 c 256,29,30
 116 148 116 148 165 92.5 c 128,-1,31
 214 37 214 37 298 37 c 0,32,21
 379 37 379 37 428 94 c 128,-1,22
EndSplineSet
EndChar
StartChar: f
Encoding: 102 102 142
Width: 632
GlyphClass: 2
Flags: W
AnchorPoint: "Anchor-1" 296 796 basechar 0
AnchorPoint: "Anchor-0" 296 0 basechar 0
LayerCount: 2
Fore
SplineSet
268 451 m 1,0,-1
 109 451 l 1,1,-1
 109 496 l 1,2,-1
 268 496 l 1,3,-1
 268 597 l 2,4,5
 268 646 268 646 277.5 671 c 128,-1,6
 287 696 287 696 310 706 c 128,-1,7
 333 716 333 716 379 716 c 2,8,-1
 549 716 l 1,9,-1
 549 667 l 1,10,-1
 375 667 l 2,11,12
 354 667 354 667 343 661.5 c 128,-1,13
 332 656 332 656 328 641.5 c 128,-1,14
 324 627 324 627 324 597 c 2,15,-1
 324 496 l 1,16,-1
 469 496 l 1,17,-1
 469 451 l 1,18,-1
 324 451 l 1,19,-1
 324 0 l 1,20,-1
 268 0 l 1,21,-1
 268 451 l 1,0,-1
EndSplineSet
EndChar
StartChar: g
Encoding: 103 103 143
Width: 632
GlyphClass: 2
Flags: W
AnchorPoint: "Anchor-1" 307 496 basechar 0
AnchorPoint: "Anchor-0" 315 -251 basechar 0
LayerCount: 2
Fore
SplineSet
179.5 -157.5 m 128,-1,1
 122 -129 122 -129 108 -72 c 1,2,-1
 164 -57 l 1,3,4
 174 -94 174 -94 213.5 -115 c 128,-1,5
 253 -136 253 -136 313 -136 c 0,6,7
 387 -136 387 -136 431.5 -102 c 128,-1,8
 476 -68 476 -68 476 0 c 2,9,-1
 476 97 l 1,10,11
 448 54 448 54 402.5 29 c 128,-1,12
 357 4 357 4 295 4 c 0,13,14
 228 4 228 4 176 34 c 128,-1,15
 124 64 124 64 95 120.5 c 128,-1,16
 66 177 66 177 66 254 c 256,17,18
 66 331 66 331 95 388 c 128,-1,19
 124 445 124 445 176 475.5 c 128,-1,20
 228 506 228 506 295 506 c 0,21,22
 357 506 357 506 403.5 479 c 128,-1,23
 450 452 450 452 476 407 c 1,24,-1
 490 496 l 1,25,-1
 532 496 l 1,26,-1
 532 -3 l 2,27,28
 532 -88 532 -88 471.5 -137 c 128,-1,29
 411 -186 411 -186 311 -186 c 0,30,0
 237 -186 237 -186 179.5 -157.5 c 128,-1,1
428.5 108 m 128,-1,32
 476 162 476 162 476 253 c 0,33,34
 476 345 476 345 428 401 c 128,-1,35
 380 457 380 457 301 457 c 0,36,37
 220 457 220 457 171.5 402.5 c 128,-1,38
 123 348 123 348 123 253 c 0,39,40
 123 159 123 159 171.5 106.5 c 128,-1,41
 220 54 220 54 301 54 c 0,42,31
 381 54 381 54 428.5 108 c 128,-1,32
EndSplineSet
EndChar
StartChar: h
Encoding: 104 104 147
Width: 632
GlyphClass: 2
Flags: W
AnchorPoint: "Anchor-1" 310 796 basechar 0
AnchorPoint: "Anchor-0" 310 0 basechar 0
LayerCount: 2
Fore
SplineSet
113 708 m 1,0,-1
 169 708 l 1,1,-1
 169 419 l 1,2,3
 191 454 191 454 235 480 c 128,-1,4
 279 506 279 506 340 506 c 0,5,6
 430 506 430 506 475.5 457 c 128,-1,7
 521 408 521 408 521 328 c 2,8,-1
 521 0 l 1,9,-1
 465 0 l 1,10,-1
 465 310 l 2,11,12
 465 378 465 378 433 417.5 c 128,-1,13
 401 457 401 457 333 457 c 0,14,15
 260 457 260 457 214.5 408 c 128,-1,16
 169 359 169 359 169 273 c 2,17,-1
 169 0 l 1,18,-1
 113 0 l 1,19,-1
 113 708 l 1,0,-1
EndSplineSet
EndChar
StartChar: k
Encoding: 107 107 161
Width: 632
GlyphClass: 2
Flags: W
AnchorPoint: "Anchor-1" 324 796 basechar 0
AnchorPoint: "Anchor-0" 329 0 basechar 0
LayerCount: 2
Fore
SplineSet
151 708 m 1,0,-1
 207 708 l 1,1,-1
 207 246 l 1,2,-1
 465 496 l 1,3,-1
 536 496 l 1,4,-1
 325 294 l 1,5,-1
 567 0 l 1,6,-1
 496 0 l 1,7,-1
 286 256 l 1,8,-1
 207 181 l 1,9,-1
 207 0 l 1,10,-1
 151 0 l 1,11,-1
 151 708 l 1,0,-1
EndSplineSet
EndChar
StartChar: q
Encoding: 113 113 184
Width: 632
GlyphClass: 2
Flags: W
AnchorPoint: "Anchor-1" 332 496 basechar 0
AnchorPoint: "Anchor-0" 332 0 basechar 0
LayerCount: 2
Fore
SplineSet
502 -147 m 128,-1,1
 476 -120 476 -120 476 -55 c 2,2,-1
 476 86 l 1,3,4
 447 41 447 41 400.5 14.5 c 128,-1,5
 354 -12 354 -12 292 -12 c 0,6,7
 223 -12 223 -12 170 19 c 128,-1,8
 117 50 117 50 88 108 c 128,-1,9
 59 166 59 166 59 247 c 256,10,11
 59 328 59 328 88 386 c 128,-1,12
 117 444 117 444 170 475 c 128,-1,13
 223 506 223 506 292 506 c 0,14,15
 355 506 355 506 402 478.5 c 128,-1,16
 449 451 449 451 476 406 c 1,17,-1
 490 496 l 1,18,-1
 532 496 l 1,19,-1
 532 -53 l 2,20,21
 532 -90 532 -90 544.5 -107 c 128,-1,22
 557 -124 557 -124 584 -124 c 256,23,24
 611 -124 611 -124 632 -110 c 1,25,-1
 632 -160 l 1,26,27
 606 -174 606 -174 575 -174 c 0,28,0
 528 -174 528 -174 502 -147 c 128,-1,1
428 94 m 128,-1,30
 476 151 476 151 476 247 c 256,31,32
 476 343 476 343 427.5 400 c 128,-1,33
 379 457 379 457 298 457 c 0,34,35
 214 457 214 457 165 401.5 c 128,-1,36
 116 346 116 346 116 247 c 256,37,38
 116 148 116 148 165 92.5 c 128,-1,39
 214 37 214 37 298 37 c 0,40,29
 380 37 380 37 428 94 c 128,-1,30
EndSplineSet
EndChar
StartChar: t
Encoding: 116 116 194
Width: 632
GlyphClass: 2
Flags: W
AnchorPoint: "Anchor-3" 325 542 basechar 0
AnchorPoint: "Anchor-1" 285 496 basechar 0
AnchorPoint: "Anchor-0" 335 0 basechar 0
LayerCount: 2
Fore
SplineSet
280.5 9 m 128,-1,1
 258 18 258 18 248.5 43 c 128,-1,2
 239 68 239 68 239 116 c 2,3,-1
 239 451 l 1,4,-1
 129 451 l 1,5,-1
 129 496 l 1,6,-1
 239 496 l 1,7,-1
 239 620 l 1,8,-1
 295 620 l 1,9,-1
 295 496 l 1,10,-1
 510 496 l 1,11,-1
 510 451 l 1,12,-1
 295 451 l 1,13,-1
 295 118 l 2,14,15
 295 88 295 88 299 73.5 c 128,-1,16
 303 59 303 59 314.5 54 c 128,-1,17
 326 49 326 49 350 49 c 2,18,-1
 460 49 l 1,19,-1
 460 0 l 1,20,-1
 345 0 l 2,21,0
 303 0 303 0 280.5 9 c 128,-1,1
EndSplineSet
EndChar
StartChar: w
Encoding: 119 119 208
Width: 632
GlyphClass: 2
Flags: W
AnchorPoint: "Anchor-1" 316 496 basechar 0
AnchorPoint: "Anchor-0" 315 0 basechar 0
LayerCount: 2
Fore
SplineSet
35 496 m 1,0,-1
 90 496 l 1,1,-1
 186 94 l 1,2,-1
 190 94 l 1,3,-1
 290 496 l 1,4,-1
 342 496 l 1,5,-1
 446 96 l 1,6,-1
 450 96 l 1,7,-1
 543 496 l 1,8,-1
 597 496 l 1,9,-1
 470 0 l 1,10,-1
 423 0 l 1,11,-1
 318 416 l 1,12,-1
 314 416 l 1,13,-1
 210 0 l 1,14,-1
 163 0 l 1,15,-1
 35 496 l 1,0,-1
EndSplineSet
EndChar
StartChar: y
Encoding: 121 121 214
Width: 632
GlyphClass: 2
Flags: W
AnchorPoint: "Anchor-1" 316 496 basechar 0
AnchorPoint: "Anchor-0" 313 0 basechar 0
LayerCount: 2
Fore
SplineSet
98 -113 m 1,0,-1
 174 -113 l 2,1,2
 209 -113 209 -113 224.5 -102.5 c 128,-1,3
 240 -92 240 -92 256 -58 c 2,4,-1
 288 11 l 1,5,-1
 66 496 l 1,6,-1
 127 496 l 1,7,-1
 316 75 l 1,8,-1
 320 75 l 1,9,-1
 506 496 l 1,10,-1
 566 496 l 1,11,-1
 304 -74 l 2,12,13
 287 -109 287 -109 274 -126.5 c 128,-1,14
 261 -144 261 -144 238 -153 c 128,-1,15
 215 -162 215 -162 174 -162 c 2,16,-1
 98 -162 l 1,17,-1
 98 -113 l 1,0,-1
EndSplineSet
EndChar
StartChar: z
Encoding: 122 122 219
Width: 632
GlyphClass: 2
Flags: W
AnchorPoint: "Anchor-1" 327 496 basechar 0
AnchorPoint: "Anchor-0" 311 0 basechar 0
LayerCount: 2
Fore
SplineSet
104 49 m 1,0,-1
 458 447 l 1,1,-1
 112 447 l 1,2,-1
 112 496 l 1,3,-1
 528 496 l 1,4,-1
 528 447 l 1,5,-1
 174 49 l 1,6,-1
 537 49 l 1,7,-1
 537 0 l 1,8,-1
 104 0 l 1,9,-1
 104 49 l 1,0,-1
EndSplineSet
EndChar
StartChar: cent
Encoding: 162 162 302
Width: 632
GlyphClass: 1
Flags: W
LayerCount: 2
Fore
SplineSet
209 33.5 m 128,-1,1
 166 70 166 70 143.5 125.5 c 128,-1,2
 121 181 121 181 121 245 c 256,3,4
 121 309 121 309 145 364.5 c 128,-1,5
 169 420 169 420 211.5 456 c 128,-1,6
 254 492 254 492 309 500 c 1,7,-1
 309 586 l 1,8,-1
 347 586 l 1,9,-1
 347 502 l 1,10,11
 412 501 412 501 455.5 471 c 128,-1,12
 499 441 499 441 523 400 c 1,13,-1
 471 380 l 1,14,15
 453 410 453 410 421.5 429.5 c 128,-1,16
 390 449 390 449 347 451 c 1,17,-1
 347 39 l 1,18,19
 390 43 390 43 423 63.5 c 128,-1,20
 456 84 456 84 473 115 c 1,21,-1
 527 95 l 1,22,23
 503 53 503 53 456.5 22 c 128,-1,24
 410 -9 410 -9 347 -12 c 1,25,-1
 347 -90 l 1,26,-1
 309 -90 l 1,27,-1
 309 -10 l 1,28,0
 252 -3 252 -3 209 33.5 c 128,-1,1
217 382 m 128,-1,30
 180 329 180 329 180 247 c 0,31,32
 180 167 180 167 215.5 110.5 c 128,-1,33
 251 54 251 54 309 42 c 1,34,-1
 309 448 l 1,35,29
 254 435 254 435 217 382 c 128,-1,30
EndSplineSet
EndChar
StartChar: yen
Encoding: 165 165 308
Width: 632
GlyphClass: 1
Flags: W
LayerCount: 2
Fore
SplineSet
286 92 m 1,0,-1
 125 92 l 1,1,-1
 125 131 l 1,2,-1
 286 131 l 1,3,-1
 286 229 l 1,4,-1
 125 229 l 1,5,-1
 125 268 l 1,6,-1
 279 268 l 1,7,-1
 52 668 l 1,8,-1
 115 668 l 1,9,-1
 315 312 l 1,10,-1
 319 312 l 1,11,-1
 518 668 l 1,12,-1
 580 668 l 1,13,-1
 354 268 l 1,14,-1
 506 268 l 1,15,-1
 506 229 l 1,16,-1
 348 229 l 1,17,-1
 348 131 l 1,18,-1
 506 131 l 1,19,-1
 506 92 l 1,20,-1
 348 92 l 1,21,-1
 348 0 l 1,22,-1
 286 0 l 1,23,-1
 286 92 l 1,0,-1
EndSplineSet
EndChar
StartChar: plusminus
Encoding: 177 177 321
Width: 632
GlyphClass: 1
Flags: W
LayerCount: 2
Fore
SplineSet
290 273 m 1,0,-1
 78 273 l 1,1,-1
 78 324 l 1,2,-1
 290 324 l 1,3,-1
 290 496 l 1,4,-1
 342 496 l 1,5,-1
 342 324 l 1,6,-1
 554 324 l 1,7,-1
 554 273 l 1,8,-1
 342 273 l 1,9,-1
 342 102 l 1,10,-1
 290 102 l 1,11,-1
 290 273 l 1,0,-1
78 55 m 1,12,-1
 554 55 l 1,13,-1
 554 0 l 1,14,-1
 78 0 l 1,15,-1
 78 55 l 1,12,-1
EndSplineSet
EndChar
StartChar: uni00B9
Encoding: 185 185 244
Width: 632
GlyphClass: 1
Flags: W
LayerCount: 2
Fore
SplineSet
351 699 m 1,0,-1
 261 699 l 1,1,-1
 261 722 l 1,2,3
 293 722 293 722 320 737.5 c 128,-1,4
 347 753 347 753 357 779 c 1,5,-1
 400 779 l 1,6,-1
 400 364 l 1,7,-1
 351 364 l 1,8,-1
 351 699 l 1,0,-1
EndSplineSet
EndChar
StartChar: onequarter
Encoding: 188 188 242
Width: 632
GlyphClass: 3
Flags: W
LayerCount: 2
Fore
SplineSet
158 593 m 1,0,-1
 90 593 l 1,1,-1
 90 626 l 1,2,3
 151 626 151 626 165 668 c 1,4,-1
 208 668 l 1,5,-1
 208 365 l 1,6,-1
 158 365 l 1,7,-1
 158 593 l 1,0,-1
472 668 m 1,8,-1
 527 668 l 1,9,-1
 160 0 l 1,10,-1
 105 0 l 1,11,-1
 472 668 l 1,8,-1
484 65 m 1,12,-1
 328 65 l 1,13,-1
 328 109 l 1,14,-1
 483 304 l 1,15,-1
 533 304 l 1,16,-1
 533 111 l 1,17,-1
 582 111 l 1,18,-1
 582 65 l 1,19,-1
 533 65 l 1,20,-1
 533 0 l 1,21,-1
 484 0 l 1,22,-1
 484 65 l 1,12,-1
484 111 m 1,23,-1
 484 234 l 1,24,-1
 482 234 l 1,25,-1
 383 111 l 1,26,-1
 484 111 l 1,23,-1
EndSplineSet
Ligature2: "'frac' Diagonal Fractions in Latin lookup 7 subtable" one slash four
EndChar
StartChar: onehalf
Encoding: 189 189 241
Width: 632
GlyphClass: 3
Flags: W
LayerCount: 2
Fore
SplineSet
131 593 m 1,0,-1
 63 593 l 1,1,-1
 63 626 l 1,2,3
 124 626 124 626 138 668 c 1,4,-1
 181 668 l 1,5,-1
 181 365 l 1,6,-1
 131 365 l 1,7,-1
 131 593 l 1,0,-1
444 668 m 1,8,-1
 499 668 l 1,9,-1
 132 0 l 1,10,-1
 77 0 l 1,11,-1
 444 668 l 1,8,-1
450 123 m 128,-1,13
 479 148 479 148 495.5 171.5 c 128,-1,14
 512 195 512 195 512 219 c 0,15,16
 512 242 512 242 498.5 254.5 c 128,-1,17
 485 267 485 267 462 267 c 0,18,19
 441 267 441 267 426 255.5 c 128,-1,20
 411 244 411 244 407 219 c 1,21,-1
 359 233 l 1,22,23
 368 268 368 268 396 288 c 128,-1,24
 424 308 424 308 465 308 c 0,25,26
 509 308 509 308 536.5 284.5 c 128,-1,27
 564 261 564 261 564 224 c 0,28,29
 564 181 564 181 530.5 141.5 c 128,-1,30
 497 102 497 102 423 47 c 1,31,-1
 572 47 l 1,32,-1
 572 0 l 1,33,-1
 350 0 l 1,34,-1
 350 41 l 1,35,12
 421 98 421 98 450 123 c 128,-1,13
EndSplineSet
Ligature2: "'frac' Diagonal Fractions in Latin lookup 7 subtable" one slash two
EndChar
StartChar: threequarters
Encoding: 190 190 243
Width: 632
GlyphClass: 3
Flags: W
LayerCount: 2
Fore
SplineSet
487 668 m 1,0,-1
 542 668 l 1,1,-1
 175 0 l 1,2,-1
 120 0 l 1,3,-1
 487 668 l 1,0,-1
499 65 m 1,4,-1
 343 65 l 1,5,-1
 343 109 l 1,6,-1
 498 304 l 1,7,-1
 548 304 l 1,8,-1
 548 111 l 1,9,-1
 597 111 l 1,10,-1
 597 65 l 1,11,-1
 548 65 l 1,12,-1
 548 0 l 1,13,-1
 499 0 l 1,14,-1
 499 65 l 1,4,-1
499 111 m 1,15,-1
 499 234 l 1,16,-1
 497 234 l 1,17,-1
 398 111 l 1,18,-1
 499 111 l 1,15,-1
73.5 387 m 128,-1,20
 45 406 45 406 35 439 c 1,21,-1
 84 453 l 1,22,23
 89 432 89 432 105 420 c 128,-1,24
 121 408 121 408 146 408 c 256,25,26
 171 408 171 408 187.5 421 c 128,-1,27
 204 434 204 434 204 457 c 0,28,29
 204 486 204 486 183.5 497.5 c 128,-1,30
 163 509 163 509 115 507 c 1,31,-1
 115 551 l 1,32,33
 157 548 157 548 177.5 560.5 c 128,-1,34
 198 573 198 573 198 597 c 0,35,36
 198 617 198 617 183 628 c 128,-1,37
 168 639 168 639 147 639 c 0,38,39
 101 639 101 639 86 597 c 1,40,-1
 39 611 l 1,41,42
 50 644 50 644 79 662 c 128,-1,43
 108 680 108 680 150 680 c 0,44,45
 190 680 190 680 219.5 659.5 c 128,-1,46
 249 639 249 639 249 599 c 0,47,48
 249 577 249 577 237 559.5 c 128,-1,49
 225 542 225 542 206 532 c 1,50,51
 230 523 230 523 243 503 c 128,-1,52
 256 483 256 483 256 460 c 0,53,54
 256 414 256 414 224.5 391 c 128,-1,55
 193 368 193 368 145 368 c 0,56,19
 102 368 102 368 73.5 387 c 128,-1,20
EndSplineSet
Ligature2: "'frac' Diagonal Fractions in Latin lookup 7 subtable" three slash four
EndChar
StartChar: questiondown
Encoding: 191 191 257
Width: 632
GlyphClass: 1
Flags: W
LayerCount: 2
Fore
SplineSet
211 -163.5 m 128,-1,1
 168 -145 168 -145 141 -108 c 128,-1,2
 114 -71 114 -71 114 -19 c 0,3,4
 114 38 114 38 143 79 c 128,-1,5
 172 120 172 120 241 178 c 0,6,7
 271 203 271 203 284 218 c 128,-1,8
 297 233 297 233 301 248 c 128,-1,9
 305 263 305 263 305 291 c 2,10,-1
 305 335 l 1,11,-1
 361 335 l 1,12,-1
 361 295 l 2,13,14
 361 256 361 256 353 230.5 c 128,-1,15
 345 205 345 205 325 182 c 128,-1,16
 305 159 305 159 265 130 c 0,17,18
 218 94 218 94 194 58.5 c 128,-1,19
 170 23 170 23 170 -19 c 0,20,21
 170 -71 170 -71 208 -102 c 128,-1,22
 246 -133 246 -133 304 -133 c 0,23,24
 370 -133 370 -133 405 -95 c 128,-1,25
 440 -57 440 -57 445 -10 c 1,26,-1
 500 -20 l 1,27,28
 491 -92 491 -92 436 -137 c 128,-1,29
 381 -182 381 -182 302 -182 c 0,30,0
 254 -182 254 -182 211 -163.5 c 128,-1,1
299 428 m 128,-1,32
 285 442 285 442 285 462 c 256,33,34
 285 482 285 482 299 496 c 128,-1,35
 313 510 313 510 333 510 c 256,36,37
 353 510 353 510 367 496 c 128,-1,38
 381 482 381 482 381 462 c 256,39,40
 381 442 381 442 367 428 c 128,-1,41
 353 414 353 414 333 414 c 256,42,31
 313 414 313 414 299 428 c 128,-1,32
EndSplineSet
EndChar
StartChar: Aring
Encoding: 197 197 10
Width: 632
GlyphClass: 2
Flags: W
AnchorPoint: "Anchor-2" 597 10 basechar 0
AnchorPoint: "Anchor-1" 316 836 basechar 0
AnchorPoint: "Anchor-0" 316 0 basechar 0
LayerCount: 2
Fore
SplineSet
236.5 686.5 m 128,-1,1
 220 710 220 710 220 740 c 0,2,3
 220 779 220 779 248.5 807.5 c 128,-1,4
 277 836 277 836 316 836 c 0,5,6
 356 836 356 836 384 807.5 c 128,-1,7
 412 779 412 779 412 740 c 0,8,9
 412 711 412 711 395.5 687 c 128,-1,10
 379 663 379 663 353 652 c 1,11,-1
 597 0 l 1,12,-1
 538 0 l 1,13,-1
 478 167 l 1,14,-1
 154 167 l 1,15,-1
 93 0 l 1,16,-1
 35 0 l 1,17,-1
 280 652 l 1,18,0
 253 663 253 663 236.5 686.5 c 128,-1,1
459 217 m 1,19,-1
 318 607 l 1,20,-1
 314 607 l 1,21,-1
 171 217 l 1,22,-1
 459 217 l 1,19,-1
355 701 m 128,-1,24
 371 717 371 717 371 740 c 256,25,26
 371 763 371 763 355 779 c 128,-1,27
 339 795 339 795 316 795 c 0,28,29
 294 795 294 795 277.5 779 c 128,-1,30
 261 763 261 763 261 740 c 0,31,32
 261 718 261 718 277.5 701.5 c 128,-1,33
 294 685 294 685 316 685 c 0,34,23
 339 685 339 685 355 701 c 128,-1,24
EndSplineSet
EndChar
StartChar: Thorn
Encoding: 222 222 72
Width: 632
GlyphClass: 2
Flags: W
AnchorPoint: "Anchor-1" 298 668 basechar 0
AnchorPoint: "Anchor-0" 298 0 basechar 0
LayerCount: 2
Fore
SplineSet
118 668 m 1,0,-1
 176 668 l 1,1,-1
 176 532 l 1,2,-1
 332 532 l 2,3,4
 442 532 442 532 504 483.5 c 128,-1,5
 566 435 566 435 566 340 c 256,6,7
 566 245 566 245 503.5 196 c 128,-1,8
 441 147 441 147 332 147 c 2,9,-1
 176 147 l 1,10,-1
 176 0 l 1,11,-1
 118 0 l 1,12,-1
 118 668 l 1,0,-1
460 230 m 128,-1,14
 507 263 507 263 507 340 c 0,15,16
 507 416 507 416 460 449 c 128,-1,17
 413 482 413 482 326 482 c 2,18,-1
 176 482 l 1,19,-1
 176 197 l 1,20,-1
 326 197 l 2,21,13
 413 197 413 197 460 230 c 128,-1,14
EndSplineSet
EndChar
StartChar: dcroat
Encoding: 273 273 131
Width: 632
GlyphClass: 1
Flags: W
LayerCount: 2
Fore
SplineSet
170 19 m 128,-1,1
 117 50 117 50 88 108 c 128,-1,2
 59 166 59 166 59 247 c 0,3,4
 59 327 59 327 88.5 385.5 c 128,-1,5
 118 444 118 444 170.5 475 c 128,-1,6
 223 506 223 506 292 506 c 0,7,8
 356 506 356 506 403 478.5 c 128,-1,9
 450 451 450 451 477 406 c 1,10,-1
 477 561 l 1,11,-1
 308 561 l 1,12,-1
 308 601 l 1,13,-1
 477 601 l 1,14,-1
 477 708 l 1,15,-1
 533 708 l 1,16,-1
 533 601 l 1,17,-1
 598 601 l 1,18,-1
 598 561 l 1,19,-1
 533 561 l 1,20,-1
 533 183 l 2,21,22
 533 89 533 89 550 0 c 1,23,-1
 498 0 l 1,24,-1
 475 84 l 1,25,26
 447 41 447 41 401 14.5 c 128,-1,27
 355 -12 355 -12 292 -12 c 0,28,0
 223 -12 223 -12 170 19 c 128,-1,1
428 94 m 128,-1,30
 477 151 477 151 477 247 c 256,31,32
 477 343 477 343 428 400 c 128,-1,33
 379 457 379 457 298 457 c 0,34,35
 214 457 214 457 165 401.5 c 128,-1,36
 116 346 116 346 116 247 c 256,37,38
 116 148 116 148 165 92.5 c 128,-1,39
 214 37 214 37 298 37 c 0,40,29
 379 37 379 37 428 94 c 128,-1,30
EndSplineSet
EndChar
StartChar: ij
Encoding: 307 307 157
Width: 632
GlyphClass: 1
Flags: W
LayerCount: 2
Fore
SplineSet
293 -112 m 1,0,-1
 365 -112 l 2,1,2
 407 -112 407 -112 426 -104 c 128,-1,3
 445 -96 445 -96 451 -75.5 c 128,-1,4
 457 -55 457 -55 457 -10 c 2,5,-1
 457 451 l 1,6,-1
 396 451 l 1,7,-1
 396 496 l 1,8,-1
 513 496 l 1,9,-1
 513 -9 l 2,10,11
 513 -71 513 -71 503 -102 c 128,-1,12
 493 -133 493 -133 462.5 -147 c 128,-1,13
 432 -161 432 -161 366 -161 c 2,14,-1
 293 -161 l 1,15,-1
 293 -112 l 1,0,-1
170 451 m 1,16,-1
 108 451 l 1,17,-1
 108 496 l 1,18,-1
 226 496 l 1,19,-1
 226 0 l 1,20,-1
 170 0 l 1,21,-1
 170 451 l 1,16,-1
152.5 613 m 128,-1,23
 138 627 138 627 138 647 c 256,24,25
 138 667 138 667 152.5 681.5 c 128,-1,26
 167 696 167 696 187 696 c 256,27,28
 207 696 207 696 221 681.5 c 128,-1,29
 235 667 235 667 235 647 c 0,30,31
 235 628 235 628 221 613.5 c 128,-1,32
 207 599 207 599 187 599 c 256,33,22
 167 599 167 599 152.5 613 c 128,-1,23
439.5 613.5 m 128,-1,35
 425 628 425 628 425 647 c 0,36,37
 425 667 425 667 439.5 681.5 c 128,-1,38
 454 696 454 696 474 696 c 256,39,40
 494 696 494 696 508.5 681.5 c 128,-1,41
 523 667 523 667 523 647 c 256,42,43
 523 627 523 627 508.5 613 c 128,-1,44
 494 599 494 599 474 599 c 256,45,34
 454 599 454 599 439.5 613.5 c 128,-1,35
EndSplineSet
EndChar
StartChar: Lslash
Encoding: 321 321 55
Width: 632
GlyphClass: 1
Flags: W
LayerCount: 2
Fore
SplineSet
146 260 m 1,0,-1
 31 193 l 1,1,-1
 31 249 l 1,2,-1
 146 317 l 1,3,-1
 146 668 l 1,4,-1
 204 668 l 1,5,-1
 204 350 l 1,6,-1
 405 467 l 1,7,-1
 405 411 l 1,8,-1
 204 294 l 1,9,-1
 204 50 l 1,10,-1
 582 50 l 1,11,-1
 582 0 l 1,12,-1
 146 0 l 1,13,-1
 146 260 l 1,0,-1
EndSplineSet
EndChar
StartChar: uni0163
Encoding: 355 355 196
Width: 632
GlyphClass: 2
Flags: W
AnchorPoint: "Anchor-3" 325 542 basechar 0
AnchorPoint: "Anchor-1" 285 496 basechar 0
LayerCount: 2
Fore
SplineSet
284.5 -170.5 m 128,-1,1
 262 -164 262 -164 245 -153 c 1,2,-1
 259 -128 l 1,3,4
 278 -138 278 -138 292.5 -141.5 c 128,-1,5
 307 -145 307 -145 324 -145 c 0,6,7
 348 -145 348 -145 360 -132.5 c 128,-1,8
 372 -120 372 -120 372 -107 c 0,9,10
 372 -77 372 -77 331 -77 c 0,11,12
 323 -77 323 -77 308 -80 c 128,-1,13
 293 -83 293 -83 289 -83 c 0,14,15
 275 -83 275 -83 275 -70 c 0,16,17
 275 -63 275 -63 280 -55 c 2,18,-1
 315 1 l 1,19,20
 271 6 271 6 255 30 c 128,-1,21
 239 54 239 54 239 116 c 2,22,-1
 239 451 l 1,23,-1
 129 451 l 1,24,-1
 129 496 l 1,25,-1
 239 496 l 1,26,-1
 239 620 l 1,27,-1
 295 620 l 1,28,-1
 295 496 l 1,29,-1
 510 496 l 1,30,-1
 510 451 l 1,31,-1
 295 451 l 1,32,-1
 295 118 l 2,33,34
 295 88 295 88 299 73.5 c 128,-1,35
 303 59 303 59 314.5 54 c 128,-1,36
 326 49 326 49 350 49 c 2,37,-1
 460 49 l 1,38,-1
 460 0 l 1,39,-1
 352 0 l 1,40,-1
 321 -48 l 1,41,42
 338 -44 338 -44 352 -44 c 0,43,44
 381 -44 381 -44 398 -60.5 c 128,-1,45
 415 -77 415 -77 415 -99 c 0,46,47
 415 -127 415 -127 391.5 -152 c 128,-1,48
 368 -177 368 -177 326 -177 c 0,49,0
 307 -177 307 -177 284.5 -170.5 c 128,-1,1
EndSplineSet
Substitution2: "'locl' Localized Forms in Latin lookup 4 subtable" uni021B
AlternateSubs2: "'aalt' Access All Alternates in Latin lookup 0 subtable" uni021B
EndChar
StartChar: uogonek
Encoding: 371 371 205
Width: 632
GlyphClass: 2
Flags: W
AnchorPoint: "Anchor-3" 554 496 basechar 0
AnchorPoint: "Anchor-1" 314 496 basechar 0
LayerCount: 2
Fore
SplineSet
159.5 37 m 128,-1,1
 117 86 117 86 117 170 c 2,2,-1
 117 496 l 1,3,-1
 173 496 l 1,4,-1
 173 187 l 2,5,6
 173 115 173 115 202 76 c 128,-1,7
 231 37 231 37 299 37 c 0,8,9
 370 37 370 37 413 85.5 c 128,-1,10
 456 134 456 134 456 220 c 2,11,-1
 456 496 l 1,12,-1
 512 496 l 1,13,-1
 512 0 l 1,14,15
 473 -13 473 -13 450 -35.5 c 128,-1,16
 427 -58 427 -58 427 -84 c 0,17,18
 427 -105 427 -105 441 -115.5 c 128,-1,19
 455 -126 455 -126 477 -126 c 0,20,21
 496 -126 496 -126 512 -119 c 1,22,-1
 512 -159 l 1,23,24
 490 -168 490 -168 463 -168 c 0,25,26
 426 -168 426 -168 403 -148 c 128,-1,27
 380 -128 380 -128 380 -94 c 256,28,29
 380 -60 380 -60 401.5 -34 c 128,-1,30
 423 -8 423 -8 468 14 c 1,31,-1
 458 80 l 1,32,33
 438 42 438 42 396.5 15 c 128,-1,34
 355 -12 355 -12 292 -12 c 0,35,0
 202 -12 202 -12 159.5 37 c 128,-1,1
EndSplineSet
EndChar
StartChar: uni0308
Encoding: 776 776 335
Width: 0
GlyphClass: 4
Flags: W
AnchorPoint: "Anchor-5" 316 688 basemark 0
AnchorPoint: "Anchor-5" 316 496 mark 0
AnchorPoint: "Anchor-1" 316 496 mark 0
LayerCount: 2
Fore
SplineSet
365 611.5 m 128,-1,1
 352 625 352 625 352 643 c 256,2,3
 352 661 352 661 365 674.5 c 128,-1,4
 378 688 378 688 396 688 c 0,5,6
 415 688 415 688 428 674.5 c 128,-1,7
 441 661 441 661 441 643 c 256,8,9
 441 625 441 625 428 611.5 c 128,-1,10
 415 598 415 598 396 598 c 0,11,0
 378 598 378 598 365 611.5 c 128,-1,1
204 611.5 m 128,-1,13
 191 625 191 625 191 643 c 256,14,15
 191 661 191 661 204 674.5 c 128,-1,16
 217 688 217 688 236 688 c 0,17,18
 254 688 254 688 267 674.5 c 128,-1,19
 280 661 280 661 280 643 c 256,20,21
 280 625 280 625 267 611.5 c 128,-1,22
 254 598 254 598 236 598 c 0,23,12
 217 598 217 598 204 611.5 c 128,-1,13
EndSplineSet
Substitution2: "Single Substitution lookup 12 subtable" uni0308.case
Substitution2: "'case' Case-Sensitive Forms in Latin lookup 9 subtable" uni0308.case
AlternateSubs2: "'aalt' Access All Alternates in Latin lookup 0 subtable" uni0308.case
EndChar
StartChar: uni030B
Encoding: 779 779 344
Width: 0
GlyphClass: 4
Flags: W
AnchorPoint: "Anchor-5" 361 696 basemark 0
AnchorPoint: "Anchor-5" 272 496 mark 0
AnchorPoint: "Anchor-1" 272 496 mark 0
LayerCount: 2
Fore
SplineSet
277 689 m 128,-1,1
 286 696 286 696 297 696 c 0,2,3
 309 696 309 696 315 689 c 128,-1,4
 321 682 321 682 321 671 c 256,5,6
 321 660 321 660 314 650.5 c 128,-1,7
 307 641 307 641 285 621 c 2,8,-1
 228 569 l 1,9,-1
 184 569 l 1,10,-1
 256 666 l 2,11,0
 268 682 268 682 277 689 c 128,-1,1
405 689 m 128,-1,13
 414 696 414 696 425 696 c 0,14,15
 437 696 437 696 443 689 c 128,-1,16
 449 682 449 682 449 671 c 256,17,18
 449 660 449 660 442 651 c 128,-1,19
 435 642 435 642 412 621 c 2,20,-1
 355 569 l 1,21,-1
 312 569 l 1,22,-1
 384 666 l 2,23,12
 396 682 396 682 405 689 c 128,-1,13
EndSplineSet
Substitution2: "Single Substitution lookup 12 subtable" uni030B.case
Substitution2: "'case' Case-Sensitive Forms in Latin lookup 9 subtable" uni030B.case
AlternateSubs2: "'aalt' Access All Alternates in Latin lookup 0 subtable" uni030B.case
EndChar
StartChar: uni0326
Encoding: 806 806 359
Width: 0
GlyphClass: 4
Flags: W
AnchorPoint: "Anchor-4" 319 -235 basemark 0
AnchorPoint: "Anchor-4" 328 0 mark 0
AnchorPoint: "Anchor-0" 328 0 mark 0
LayerCount: 2
Fore
SplineSet
308.5 -186.5 m 128,-1,1
 333 -169 333 -169 333 -135 c 0,2,3
 333 -93 333 -93 296 -70 c 1,4,-1
 340 -52 l 1,5,6
 361 -69 361 -69 370.5 -87 c 128,-1,7
 380 -105 380 -105 380 -127 c 0,8,9
 380 -172 380 -172 350 -201 c 128,-1,10
 320 -230 320 -230 282 -232 c 1,11,-1
 252 -207 l 1,12,0
 284 -204 284 -204 308.5 -186.5 c 128,-1,1
EndSplineSet
EndChar
StartChar: uni0327
Encoding: 807 807 360
Width: 0
GlyphClass: 4
Flags: W
AnchorPoint: "Anchor-4" 322 -178 basemark 0
AnchorPoint: "Anchor-4" 322 0 mark 0
AnchorPoint: "Anchor-0" 322 0 mark 0
LayerCount: 2
Fore
SplineSet
271.5 -170.5 m 128,-1,1
 249 -164 249 -164 232 -153 c 1,2,-1
 246 -128 l 1,3,4
 265 -138 265 -138 279.5 -141.5 c 128,-1,5
 294 -145 294 -145 311 -145 c 0,6,7
 335 -145 335 -145 346.5 -133 c 128,-1,8
 358 -121 358 -121 358 -107 c 0,9,10
 358 -77 358 -77 317 -77 c 0,11,12
 310 -77 310 -77 295.5 -80 c 128,-1,13
 281 -83 281 -83 276 -83 c 0,14,15
 261 -83 261 -83 261 -69 c 0,16,17
 261 -63 261 -63 266 -55 c 2,18,-1
 313 20 l 1,19,-1
 343 6 l 1,20,-1
 308 -48 l 1,21,22
 325 -44 325 -44 339 -44 c 0,23,24
 368 -44 368 -44 384.5 -60 c 128,-1,25
 401 -76 401 -76 401 -99 c 0,26,27
 401 -127 401 -127 378 -152 c 128,-1,28
 355 -177 355 -177 313 -177 c 0,29,0
 294 -177 294 -177 271.5 -170.5 c 128,-1,1
EndSplineSet
EndChar
StartChar: uni0328
Encoding: 808 808 361
Width: 0
GlyphClass: 4
Flags: W
AnchorPoint: "Anchor-2" 382 10 mark 0
LayerCount: 2
Fore
SplineSet
273 -148 m 128,-1,1
 250 -128 250 -128 250 -94 c 0,2,3
 250 -58 250 -58 273.5 -31.5 c 128,-1,4
 297 -5 297 -5 345 17 c 1,5,-1
 382 0 l 1,6,7
 343 -13 343 -13 320 -35.5 c 128,-1,8
 297 -58 297 -58 297 -84 c 0,9,10
 297 -105 297 -105 311 -115.5 c 128,-1,11
 325 -126 325 -126 348 -126 c 0,12,13
 366 -126 366 -126 382 -119 c 1,14,-1
 382 -159 l 1,15,16
 368 -165 368 -165 357.5 -166.5 c 128,-1,17
 347 -168 347 -168 333 -168 c 0,18,0
 296 -168 296 -168 273 -148 c 128,-1,1
EndSplineSet
Substitution2: "Single Substitution lookup 12 subtable" uni0328.case
Substitution2: "'case' Case-Sensitive Forms in Latin lookup 9 subtable" uni0328.case
AlternateSubs2: "'aalt' Access All Alternates in Latin lookup 0 subtable" uni0328.case
EndChar
StartChar: uni0394
Encoding: 916 916 225
Width: 632
GlyphClass: 1
Flags: W
LayerCount: 2
Fore
SplineSet
286 668 m 1,0,-1
 347 668 l 1,1,-1
 597 0 l 1,2,-1
 35 0 l 1,3,-1
 286 668 l 1,0,-1
521 50 m 1,4,-1
 318 607 l 1,5,-1
 314 607 l 1,6,-1
 111 50 l 1,7,-1
 521 50 l 1,4,-1
EndSplineSet
EndChar
StartChar: uni03BC
Encoding: 956 956 227
Width: 632
GlyphClass: 1
Flags: W
LayerCount: 2
Fore
SplineSet
128 496 m 1,0,-1
 184 496 l 1,1,-1
 184 187 l 2,2,3
 184 115 184 115 211 76 c 128,-1,4
 238 37 238 37 302 37 c 0,5,6
 367 37 367 37 407.5 85.5 c 128,-1,7
 448 134 448 134 448 220 c 2,8,-1
 448 496 l 1,9,-1
 505 496 l 1,10,-1
 505 98 l 2,11,12
 505 68 505 68 513 58 c 128,-1,13
 521 48 521 48 548 48 c 2,14,-1
 558 48 l 1,15,-1
 558 0 l 1,16,-1
 545 0 l 2,17,18
 492 0 492 0 472 18.5 c 128,-1,19
 452 37 452 37 449 77 c 1,20,21
 428 40 428 40 390.5 14 c 128,-1,22
 353 -12 353 -12 297 -12 c 0,23,24
 257 -12 257 -12 225.5 1 c 128,-1,25
 194 14 194 14 184 36 c 1,26,-1
 184 -162 l 1,27,-1
 128 -162 l 1,28,-1
 128 496 l 1,0,-1
EndSplineSet
EndChar
StartChar: uni1E9E
Encoding: 7838 7838 82
Width: 632
GlyphClass: 1
Flags: W
LayerCount: 2
Fore
SplineSet
310.5 19 m 128,-1,1
 271 50 271 50 256 100 c 1,2,-1
 307 120 l 1,3,4
 327 39 327 39 420 39 c 0,5,6
 471 39 471 39 505 74 c 128,-1,7
 539 109 539 109 539 170 c 0,8,9
 539 233 539 233 504.5 266.5 c 128,-1,10
 470 300 470 300 421 300 c 0,11,12
 394 300 394 300 372 291 c 1,13,-1
 341 341 l 1,14,-1
 523 607 l 1,15,16
 414 631 414 631 336 631 c 0,17,18
 236 631 236 631 187 590.5 c 128,-1,19
 138 550 138 550 138 446 c 2,20,-1
 138 0 l 1,21,-1
 80 0 l 1,22,-1
 80 447 l 2,23,24
 80 680 80 680 335 680 c 0,25,26
 430 680 430 680 575 645 c 1,27,-1
 575 594 l 1,28,-1
 406 346 l 1,29,30
 424 348 424 348 432 348 c 0,31,32
 477 348 477 348 514.5 325.5 c 128,-1,33
 552 303 552 303 573.5 262.5 c 128,-1,34
 595 222 595 222 595 169 c 0,35,36
 595 111 595 111 570.5 70.5 c 128,-1,37
 546 30 546 30 506 9 c 128,-1,38
 466 -12 466 -12 420 -12 c 0,39,0
 350 -12 350 -12 310.5 19 c 128,-1,1
EndSplineSet
EndChar
StartChar: quoteleft
Encoding: 8216 8216 278
Width: 632
GlyphClass: 1
Flags: W
LayerCount: 2
Fore
SplineSet
277.5 462.5 m 128,-1,1
 262 478 262 478 262 500 c 0,2,3
 262 512 262 512 269 529 c 2,4,-1
 326 680 l 1,5,-1
 369 680 l 1,6,-1
 319 553 l 1,7,8
 340 551 340 551 354 536.5 c 128,-1,9
 368 522 368 522 368 500 c 256,10,11
 368 478 368 478 352.5 462.5 c 128,-1,12
 337 447 337 447 315 447 c 256,13,0
 293 447 293 447 277.5 462.5 c 128,-1,1
EndSplineSet
EndChar
StartChar: quotedblleft
Encoding: 8220 8220 276
Width: 632
GlyphClass: 1
Flags: W
LayerCount: 2
Fore
SplineSet
366.5 451.5 m 128,-1,1
 351 467 351 467 351 489 c 0,2,3
 351 501 351 501 358 518 c 2,4,-1
 415 668 l 1,5,-1
 457 668 l 1,6,-1
 408 542 l 1,7,8
 429 540 429 540 443 525 c 128,-1,9
 457 510 457 510 457 489 c 0,10,11
 457 467 457 467 441.5 451.5 c 128,-1,12
 426 436 426 436 404 436 c 256,13,0
 382 436 382 436 366.5 451.5 c 128,-1,1
189.5 451.5 m 128,-1,15
 174 467 174 467 174 489 c 0,16,17
 174 501 174 501 181 518 c 2,18,-1
 239 668 l 1,19,-1
 281 668 l 1,20,-1
 232 542 l 1,21,22
 252 540 252 540 266 525 c 128,-1,23
 280 510 280 510 280 489 c 0,24,25
 280 467 280 467 265 451.5 c 128,-1,26
 250 436 250 436 227 436 c 0,27,14
 205 436 205 436 189.5 451.5 c 128,-1,15
EndSplineSet
EndChar
StartChar: quotedblright
Encoding: 8221 8221 277
Width: 632
GlyphClass: 1
Flags: W
LayerCount: 2
Fore
SplineSet
366 591 m 128,-1,1
 352 606 352 606 352 627 c 0,2,3
 352 650 352 650 367.5 665 c 128,-1,4
 383 680 383 680 405 680 c 256,5,6
 427 680 427 680 442.5 664.5 c 128,-1,7
 458 649 458 649 458 627 c 0,8,9
 458 616 458 616 451 598 c 2,10,-1
 393 448 l 1,11,-1
 351 448 l 1,12,-1
 400 574 l 1,13,0
 380 576 380 576 366 591 c 128,-1,1
189 590.5 m 128,-1,15
 175 606 175 606 175 627 c 0,16,17
 175 649 175 649 190.5 664.5 c 128,-1,18
 206 680 206 680 228 680 c 0,19,20
 251 680 251 680 266 665 c 128,-1,21
 281 650 281 650 281 627 c 0,22,23
 281 616 281 616 274 598 c 2,24,-1
 217 448 l 1,25,-1
 175 448 l 1,26,-1
 224 574 l 1,27,14
 203 575 203 575 189 590.5 c 128,-1,15
EndSplineSet
EndChar
StartChar: daggerdbl
Encoding: 8225 8225 300
Width: 632
GlyphClass: 1
Flags: W
LayerCount: 2
Fore
SplineSet
292 171 m 1,0,-1
 98 171 l 1,1,-1
 98 232 l 1,2,-1
 292 232 l 1,3,-1
 292 434 l 1,4,-1
 98 434 l 1,5,-1
 98 496 l 1,6,-1
 292 496 l 1,7,-1
 292 668 l 1,8,-1
 341 668 l 1,9,-1
 341 496 l 1,10,-1
 534 496 l 1,11,-1
 534 434 l 1,12,-1
 341 434 l 1,13,-1
 341 232 l 1,14,-1
 534 232 l 1,15,-1
 534 171 l 1,16,-1
 341 171 l 1,17,-1
 341 0 l 1,18,-1
 292 0 l 1,19,-1
 292 171 l 1,0,-1
EndSplineSet
EndChar
StartChar: uni20B9
Encoding: 8377 8377 306
Width: 632
GlyphClass: 1
Flags: W
LayerCount: 2
Fore
SplineSet
106 291 m 1,0,-1
 106 336 l 1,1,-1
 194 336 l 2,2,3
 290 336 290 336 341.5 365 c 128,-1,4
 393 394 393 394 400 456 c 1,5,-1
 106 456 l 1,6,-1
 106 496 l 1,7,-1
 400 496 l 1,8,9
 393 556 393 556 340.5 586.5 c 128,-1,10
 288 617 288 617 194 617 c 2,11,-1
 106 617 l 1,12,-1
 106 668 l 1,13,-1
 543 668 l 1,14,-1
 543 628 l 1,15,-1
 366 628 l 1,16,17
 451 585 451 585 460 496 c 1,18,-1
 543 496 l 1,19,-1
 543 456 l 1,20,-1
 460 456 l 1,21,22
 453 371 453 371 383.5 329.5 c 128,-1,23
 314 288 314 288 195 288 c 2,24,-1
 185 288 l 1,25,-1
 479 0 l 1,26,-1
 403 0 l 1,27,-1
 106 291 l 1,0,-1
EndSplineSet
EndChar
StartChar: uni2113
Encoding: 8467 8467 299
Width: 632
GlyphClass: 1
Flags: W
LayerCount: 2
Fore
SplineSet
256.5 24 m 128,-1,1
 230 60 230 60 230 136 c 2,2,-1
 230 203 l 1,3,-1
 163 151 l 1,4,-1
 163 212 l 1,5,-1
 230 265 l 1,6,-1
 230 524 l 2,7,8
 230 593 230 593 256.5 636.5 c 128,-1,9
 283 680 283 680 344 680 c 0,10,11
 397 680 397 680 425.5 641 c 128,-1,12
 454 602 454 602 454 541 c 0,13,14
 454 452 454 452 412.5 383 c 128,-1,15
 371 314 371 314 282 240 c 1,16,-1
 282 136 l 2,17,18
 282 83 282 83 302 60 c 128,-1,19
 322 37 322 37 352 37 c 0,20,21
 400 37 400 37 445 79 c 1,22,-1
 472 37 l 1,23,24
 449 14 449 14 417.5 1 c 128,-1,25
 386 -12 386 -12 354 -12 c 0,26,0
 283 -12 283 -12 256.5 24 c 128,-1,1
373.5 417 m 128,-1,28
 403 477 403 477 403 542 c 0,29,30
 403 588 403 588 387 611.5 c 128,-1,31
 371 635 371 635 343 635 c 0,32,33
 282 635 282 635 282 526 c 2,34,-1
 282 307 l 1,35,27
 344 357 344 357 373.5 417 c 128,-1,28
EndSplineSet
EndChar
StartChar: estimated
Encoding: 8494 8494 301
Width: 632
GlyphClass: 1
Flags: W
LayerCount: 2
Fore
SplineSet
196 17 m 128,-1,1
 137 46 137 46 98 107.5 c 128,-1,2
 59 169 59 169 59 260 c 0,3,4
 59 314 59 314 91 370.5 c 128,-1,5
 123 427 123 427 181.5 464 c 128,-1,6
 240 501 240 501 315 501 c 0,7,8
 385 501 385 501 443.5 467 c 128,-1,9
 502 433 502 433 537 374.5 c 128,-1,10
 572 316 572 316 572 247 c 1,11,-1
 150 247 l 1,12,-1
 150 65 l 1,13,14
 220 1 220 1 315 1 c 0,15,16
 369 1 369 1 415.5 22.5 c 128,-1,17
 462 44 462 44 496 82 c 1,18,-1
 512 79 l 1,19,20
 476 36 476 36 425 12 c 128,-1,21
 374 -12 374 -12 315 -12 c 0,22,0
 255 -12 255 -12 196 17 c 128,-1,1
482 261 m 1,23,-1
 482 422 l 1,24,25
 448 453 448 453 405.5 470.5 c 128,-1,26
 363 488 363 488 315 488 c 0,27,28
 221 488 221 488 150 422 c 1,29,-1
 150 261 l 1,30,-1
 482 261 l 1,23,-1
EndSplineSet
EndChar
StartChar: product
Encoding: 8719 8719 328
Width: 632
GlyphClass: 1
Flags: W
LayerCount: 2
Fore
SplineSet
91 668 m 1,0,-1
 541 668 l 1,1,-1
 541 -162 l 1,2,-1
 483 -162 l 1,3,-1
 483 605 l 1,4,-1
 148 605 l 1,5,-1
 148 -162 l 1,6,-1
 91 -162 l 1,7,-1
 91 668 l 1,0,-1
EndSplineSet
EndChar
StartChar: greaterequal
Encoding: 8805 8805 319
Width: 632
GlyphClass: 1
Flags: W
LayerCount: 2
Fore
SplineSet
89 162 m 1,0,-1
 463 291 l 1,1,-1
 89 421 l 1,2,-1
 89 484 l 1,3,-1
 543 317 l 1,4,-1
 543 266 l 1,5,-1
 89 101 l 1,6,-1
 89 162 l 1,0,-1
89 55 m 1,7,-1
 543 55 l 1,8,-1
 543 0 l 1,9,-1
 89 0 l 1,10,-1
 89 55 l 1,7,-1
EndSplineSet
EndChar
StartChar: acutecomb.case
Encoding: 65544 -1 343
Width: 0
GlyphClass: 4
Flags: W
AnchorPoint: "Anchor-5" 264 855 basemark 0
AnchorPoint: "Anchor-5" 264 668 mark 0
AnchorPoint: "Anchor-1" 264 668 mark 0
LayerCount: 2
Fore
SplineSet
348 835 m 128,-1,1
 356 840 356 840 365 840 c 0,2,3
 377 840 377 840 384.5 833.5 c 128,-1,4
 392 827 392 827 392 815 c 256,5,6
 392 803 392 803 384.5 796.5 c 128,-1,7
 377 790 377 790 349 773 c 2,8,-1
 291 739 l 1,9,-1
 240 739 l 1,10,-1
 324 816 l 2,11,0
 340 830 340 830 348 835 c 128,-1,1
EndSplineSet
EndChar
StartChar: gravecomb.case
Encoding: 65543 -1 341
Width: 0
GlyphClass: 4
Flags: W
AnchorPoint: "Anchor-5" 368 855 basemark 0
AnchorPoint: "Anchor-5" 368 668 mark 0
AnchorPoint: "Anchor-1" 368 668 mark 0
LayerCount: 2
Fore
SplineSet
247.5 796.5 m 128,-1,1
 240 803 240 803 240 815 c 256,2,3
 240 827 240 827 247.5 833.5 c 128,-1,4
 255 840 255 840 267 840 c 0,5,6
 276 840 276 840 284 835 c 128,-1,7
 292 830 292 830 308 816 c 2,8,-1
 392 739 l 1,9,-1
 341 739 l 1,10,-1
 283 773 l 2,11,0
 255 790 255 790 247.5 796.5 c 128,-1,1
EndSplineSet
EndChar
StartChar: uni030C.alt
Encoding: 65546 -1 346
Width: 0
GlyphClass: 4
Flags: W
AnchorPoint: "Anchor-3" 254 496 mark 0
LayerCount: 2
Fore
SplineSet
306 706.5 m 128,-1,1
 313 718 313 718 329 718 c 0,2,3
 341 718 341 718 350 711.5 c 128,-1,4
 359 705 359 705 359 691 c 0,5,6
 359 685 359 685 347 652 c 2,7,-1
 308 540 l 1,8,-1
 274 540 l 1,9,-1
 295 669 l 2,10,0
 299 695 299 695 306 706.5 c 128,-1,1
EndSplineSet
EndChar
StartChar: uni0328.alt
Encoding: 65553 -1 362
Width: 0
GlyphClass: 4
Flags: W
AnchorPoint: "Anchor-2" 382 10 mark 0
LayerCount: 2
Fore
SplineSet
273 -148 m 128,-1,1
 250 -128 250 -128 250 -94 c 0,2,3
 250 -57 250 -57 273.5 -24 c 128,-1,4
 297 9 297 9 334 26 c 1,5,-1
 365 22 l 1,6,7
 332 3 332 3 314.5 -22.5 c 128,-1,8
 297 -48 297 -48 297 -78 c 0,9,10
 297 -101 297 -101 313 -113.5 c 128,-1,11
 329 -126 329 -126 351 -126 c 0,12,13
 369 -126 369 -126 382 -119 c 1,14,-1
 382 -159 l 1,15,16
 368 -165 368 -165 357.5 -166.5 c 128,-1,17
 347 -168 347 -168 333 -168 c 0,18,0
 296 -168 296 -168 273 -148 c 128,-1,1
EndSplineSet
EndChar
StartChar: zero.zero
Encoding: 65539 -1 239
Width: 632
GlyphClass: 1
Flags: W
LayerCount: 2
Fore
SplineSet
130.5 76.5 m 128,-1,1
 63 166 63 166 63 335 c 256,2,3
 63 504 63 504 130.5 593.5 c 128,-1,4
 198 683 198 683 316 683 c 256,5,6
 434 683 434 683 501.5 593.5 c 128,-1,7
 569 504 569 504 569 335 c 256,8,9
 569 166 569 166 501.5 76.5 c 128,-1,10
 434 -13 434 -13 316 -13 c 256,11,0
 198 -13 198 -13 130.5 76.5 c 128,-1,1
459.5 108 m 128,-1,13
 513 180 513 180 513 335 c 0,14,15
 513 489 513 489 459.5 561.5 c 128,-1,16
 406 634 406 634 316 634 c 256,17,18
 226 634 226 634 172.5 561.5 c 128,-1,19
 119 489 119 489 119 335 c 0,20,21
 119 180 119 180 172.5 108 c 128,-1,22
 226 36 226 36 316 36 c 256,23,12
 406 36 406 36 459.5 108 c 128,-1,13
278.5 297.5 m 128,-1,25
 263 313 263 313 263 335 c 256,26,27
 263 357 263 357 278.5 372.5 c 128,-1,28
 294 388 294 388 316 388 c 256,29,30
 338 388 338 388 353.5 372.5 c 128,-1,31
 369 357 369 357 369 335 c 256,32,33
 369 313 369 313 353.5 297.5 c 128,-1,34
 338 282 338 282 316 282 c 256,35,24
 294 282 294 282 278.5 297.5 c 128,-1,25
EndSplineSet
EndChar
